<?xml version="1.0" standalone="no"?>
<!DOCTYPE svg PUBLIC "-//W3C//DTD SVG 20010904//EN"
 "http://www.w3.org/TR/2001/REC-SVG-20010904/DTD/svg10.dtd">
<svg version="1.0" xmlns="http://www.w3.org/2000/svg"
 width="500.000000pt" height="500.000000pt" viewBox="0 0 500.000000 500.000000"
 preserveAspectRatio="xMidYMid meet">
<metadata>
Created by potrace 1.14, written by Peter Selinger 2001-2017
</metadata>
<g transform="translate(0.000000,500.000000) scale(0.100000,-0.100000)"
fill="#000000" stroke="none">
<path d="M1888 4293 c-39 -44 -85 -214 -109 -408 -9 -77 -18 -110 -39 -145
-16 -25 -38 -68 -50 -96 -21 -50 -22 -51 -108 -84 -255 -96 -479 -247 -691
-465 -144 -149 -295 -351 -316 -425 -4 -14 -21 -39 -37 -57 -30 -31 -31 -53
-2 -53 20 0 18 -17 -7 -51 -18 -26 -19 -30 -5 -35 9 -4 28 -4 42 -1 23 4 25 2
19 -27 -4 -17 -9 -39 -11 -48 -6 -21 16 -16 56 13 l25 18 16 -52 15 -52 41 40
c22 22 42 47 45 55 4 12 13 8 42 -18 20 -17 41 -32 46 -32 13 0 37 39 45 72 6
22 15 28 57 38 28 6 53 9 55 6 2 -2 -5 -19 -16 -37 -47 -81 -87 -260 -97 -439
-4 -63 -12 -111 -20 -120 -7 -8 -24 -39 -37 -69 l-25 -53 -89 -2 c-81 -2 -91
0 -123 25 -39 29 -74 49 -87 49 -19 0 -43 -60 -43 -105 0 -44 -4 -51 -44 -87
-25 -21 -48 -47 -51 -58 -5 -17 -15 -19 -73 -17 l-67 2 -3 -32 c-3 -34 31
-125 54 -144 8 -6 14 -26 14 -43 0 -46 36 -168 71 -240 66 -135 165 -232 304
-296 99 -46 194 -70 278 -70 78 0 206 31 261 64 41 24 126 103 126 116 0 4 78
7 173 8 140 0 186 3 247 20 l75 20 102 -34 c224 -75 466 -105 691 -86 76 7
180 22 232 33 118 27 122 27 195 -1 50 -20 84 -24 208 -28 84 -2 190 1 243 8
l94 11 72 -74 c101 -103 175 -138 301 -144 119 -6 203 13 327 75 127 63 227
157 275 256 45 95 58 172 53 298 -5 97 -3 109 29 206 19 57 32 110 29 118 -8
21 -37 17 -102 -16 -32 -16 -62 -30 -67 -30 -4 0 -38 21 -76 47 l-69 48 -10
70 c-19 138 -65 362 -97 473 -17 62 -27 111 -21 109 6 -2 41 -14 77 -26 60
-20 67 -25 85 -64 23 -50 42 -53 63 -10 14 28 21 33 55 33 29 0 47 -8 73 -30
19 -17 45 -30 60 -30 23 0 25 3 20 29 l-6 28 45 -5 46 -5 -16 31 c-21 40 -21
39 16 47 l32 7 -24 20 -23 19 21 6 c30 7 28 19 -13 64 -19 22 -35 47 -35 57 0
27 -55 136 -114 226 -135 208 -382 444 -660 629 -133 89 -316 195 -443 256
-58 28 -95 52 -102 67 -7 16 -6 48 5 111 34 206 28 371 -15 424 -17 22 -20 22
-92 10 -104 -17 -241 -65 -330 -115 l-76 -43 -49 28 c-27 16 -76 35 -109 44
-80 22 -247 22 -358 1 l-88 -17 -37 29 c-88 69 -258 158 -325 169 -23 3 -37 0
-49 -14z m374 -710 c157 -177 164 -183 189 -183 15 0 66 44 165 141 l142 141
67 -22 c201 -67 412 -297 431 -472 6 -50 3 -65 -21 -113 -37 -77 -122 -165
-223 -232 -107 -71 -186 -91 -392 -99 -219 -9 -396 27 -561 113 -199 103 -337
300 -315 447 20 129 141 264 327 366 41 22 75 40 76 40 0 0 52 -57 115 -127z
m-267 -709 c212 -135 517 -183 819 -128 105 19 157 43 251 114 l66 50 82 -42
c330 -172 564 -506 649 -927 l21 -104 -21 -42 c-11 -24 -23 -59 -26 -79 -3
-20 -8 -51 -11 -70 -4 -27 -17 -43 -56 -73 -99 -75 -175 -200 -201 -331 -13
-62 -19 -68 -194 -155 -216 -108 -413 -171 -634 -203 -154 -22 -430 -15 -575
16 -139 29 -290 81 -425 146 -132 63 -181 93 -303 183 -82 60 -91 71 -122 138
-42 92 -91 164 -155 230 -50 52 -50 53 -50 117 0 214 77 471 201 673 68 109
252 299 364 374 61 41 247 147 262 149 2 0 28 -16 58 -36z m-1436 -303 c-15
-5 -22 6 -14 19 6 9 10 9 16 -1 5 -8 4 -15 -2 -18z m38 -77 c-3 -3 -17 -4 -31
-2 -26 3 -26 4 -10 26 l16 23 15 -21 c8 -12 13 -24 10 -26z m45 -15 c20 -11
19 -11 -8 -40 -37 -39 -44 -37 -32 11 12 45 11 44 40 29z m118 -37 c0 -17 -47
-82 -59 -82 -8 0 -31 74 -31 97 0 4 20 7 45 5 33 -3 45 -8 45 -20z m115 -28
l-16 -25 -42 33 -41 33 54 5 c62 6 72 -5 45 -46z m3883 -32 c-25 -5 -28 -1
-22 26 l6 21 18 -22 c18 -21 18 -22 -2 -25z m-12 -50 c-22 -5 -30 3 -21 18 5
8 11 7 22 -2 15 -12 14 -13 -1 -16z m-16 -48 c13 -34 13 -34 -7 -27 -34 12
-44 25 -32 39 17 21 28 17 39 -12z m-60 -49 c0 -41 -7 -43 -45 -13 l-28 22 29
13 c42 18 44 17 44 -22z m-197 19 c7 -7 -13 -54 -23 -54 -6 0 -30 44 -30 55 0
7 46 6 53 -1z m-3524 -401 c36 -43 61 -111 61 -164 0 -35 -3 -39 -33 -44 -57
-11 -157 27 -157 59 0 17 48 133 67 162 20 32 26 31 62 -13z m3026 -113 c49
-98 55 -138 25 -165 -24 -22 -93 -17 -134 10 -28 18 -28 21 -22 82 4 35 11 76
17 91 11 29 47 72 61 72 4 0 28 -40 53 -90z m-3366 24 c34 -31 61 -61 61 -66
0 -6 -15 -25 -34 -44 -29 -29 -41 -34 -80 -34 -41 0 -46 3 -53 28 -13 45 -9
137 6 155 21 26 36 21 100 -39z m3749 -36 c23 -187 22 -188 -54 -188 -30 0
-52 8 -82 30 -23 17 -42 35 -42 40 0 6 13 39 28 73 36 78 86 137 117 137 21 0
23 -6 33 -92z m-3551 -7 c-11 -52 53 -91 148 -91 44 0 56 4 65 20 6 11 8 25 5
30 -3 6 -1 10 5 10 24 0 187 -176 228 -246 82 -140 118 -315 93 -449 -9 -48
-19 -67 -52 -101 -137 -140 -389 -166 -606 -63 -169 80 -288 222 -341 404 -36
122 -36 140 -6 159 44 30 83 143 54 161 -19 12 52 105 80 105 4 0 10 -13 13
-30 6 -27 10 -30 46 -30 54 0 102 24 130 66 22 32 23 36 7 52 -9 10 -16 22
-16 25 0 4 34 7 76 7 l77 0 -6 -29z m3383 -31 c0 -6 -7 -27 -15 -47 -15 -35
-15 -37 11 -65 37 -37 104 -62 148 -54 45 9 59 27 54 76 -2 22 -2 40 0 40 2 0
30 -19 63 -42 39 -28 56 -45 49 -52 -26 -26 0 -113 44 -148 11 -10 33 -18 48
-18 25 0 27 -3 34 -67 18 -169 -43 -342 -159 -450 -69 -65 -205 -141 -297
-167 -214 -59 -406 5 -524 177 -48 69 -68 148 -68 267 0 164 56 289 181 402
l63 56 35 -24 c43 -29 132 -34 157 -8 23 23 30 59 17 95 -6 18 -11 34 -11 35
0 2 38 4 85 4 52 0 85 -4 85 -10z m490 -93 c0 -16 -42 -139 -60 -179 -16 -35
-30 -35 -69 -2 -26 21 -61 100 -49 108 95 72 178 106 178 73z m-4312 -48 c17
-6 32 -14 32 -18 0 -29 -36 -105 -57 -118 -24 -16 -26 -16 -40 3 -26 33 -43
82 -43 120 l0 36 38 -6 c20 -4 52 -12 70 -17z"/>
<path d="M1892 3218 c13 -40 196 -97 311 -98 83 0 70 14 -16 18 -94 4 -179 25
-245 63 -31 17 -52 25 -50 17z"/>
<path d="M3018 3164 c-42 -23 -122 -34 -247 -35 -112 -1 -114 -2 -56 -11 111
-18 316 13 340 52 8 13 -4 11 -37 -6z"/>
<path d="M2174 2975 c-20 -31 -14 -39 54 -74 168 -85 336 -81 467 9 48 33 53
44 29 75 -13 17 -16 18 -24 5 -5 -8 -10 -28 -10 -43 0 -24 -7 -32 -55 -53 -86
-40 -169 -50 -251 -31 -38 8 -90 24 -115 35 -42 18 -48 24 -54 61 -8 47 -18
51 -41 16z m22 -32 c-10 -10 -19 5 -10 18 6 11 8 11 12 0 2 -7 1 -15 -2 -18z
m521 5 c-3 -8 -6 -5 -6 6 -1 11 2 17 5 13 3 -3 4 -12 1 -19z"/>
<path d="M616 1355 c-47 -16 -103 -69 -122 -112 -50 -117 56 -308 202 -363 73
-27 193 -37 254 -20 63 17 115 72 124 130 14 98 -55 221 -174 311 -90 67 -193
87 -284 54z"/>
<path d="M4055 1254 c-90 -23 -117 -38 -159 -88 -137 -160 -124 -318 31 -376
185 -69 445 56 461 221 14 142 -81 239 -238 245 -41 2 -84 1 -95 -2z"/>
</g>
</svg>
